# xmcd
#
# Track frame offsets: 
#        150
#        23489
#        38860
#        71612
#        99768
#        121638
#        142029
#        171426
#        191771
#        209281
#        233406
#        256772
#
# Disc length: 3734 seconds
#
# Revision: 0
# Processed by: cddbd v1.5.2PL0 Copyright (c) Steve Scherf et al.
# Submitted via: ExactAudioCopy v0.99pb4
#
DISCID=970e940c
DTITLE=Blues The Buthcher - Spoonful
DYEAR=2008
DGENRE=Blues
TTITLE0=So Many Roads, So Many Trains
TTITLE1=Mary Had A Little Lamb
TTITLE2=Spoonful
TTITLE3=Sittin' On Top Of The World
TTITLE4=Killing Floor
TTITLE5=Found Love
TTITLE6=Help Me
TTITLE7=I Want To Be Loved
TTITLE8=Slippin' and Slidin'
TTITLE9=Mystery Train
TTITLE10=Ramblin' On My Mind
TTITLE11=I'm Still In Love With You
EXTD=
EXTT0=
EXTT1=
EXTT2=
EXTT3=
EXTT4=
EXTT5=
EXTT6=
EXTT7=
EXTT8=
EXTT9=
EXTT10=
EXTT11=
PLAYORDER=
